<svg width="8" height="16" viewBox="0 0 8 16" fill="none" xmlns="http://www.w3.org/2000/svg">
<path d="M0.968791 12.6318V13.0542C0.968791 14.5949 2.14757 16 3.7752 16C5.35443 16 6.59392 14.7223 6.59392 13.1878V12.6318C6.59392 10.8403 6.78899 9.33056 7.19025 8.01647C7.46851 7.10523 7.59867 5.75607 7.52998 4.49551C7.41885 2.45674 6.73743 0 4.71888 0C3.38904 0 2.30223 0.413322 1.48868 1.22853C0.525093 2.19399 -0.00357563 3.71134 1.82029e-05 5.50104C0.001862 6.42168 0.119833 7.29148 0.341214 8.01644C0.75763 9.38019 0.968791 10.933 0.968791 12.6318ZM5.6564 12.6318V13.1878C5.6564 14.2065 4.83291 15.0634 3.78136 15.0629C2.69208 15.0623 1.90631 14.1051 1.90631 13.0542V12.6318C1.90631 11.1355 1.74887 9.74217 1.43883 8.4772L4.19334 5.06646L6.13657 8.30523C5.814 9.57116 5.6564 10.9932 5.6564 12.6318ZM2.15226 1.89079C2.78352 1.25825 3.64707 0.937522 4.71888 0.937522C6.58102 0.937522 6.83093 4.91787 6.46089 7.0236L4.71888 4.12028V2.84382H3.78136V4.08444L1.13579 7.36027C1.00698 6.80457 0.938853 6.16952 0.93754 5.49919C0.934446 3.96022 1.36586 2.67875 2.15226 1.89079Z" fill="#848CA0"/>
</svg>
